<?xml version="1.0" encoding="utf-8"?>
<!-- Generator: Adobe Illustrator 16.0.0, SVG Export Plug-In . SVG Version: 6.00 Build 0)  -->
<!DOCTYPE svg PUBLIC "-//W3C//DTD SVG 1.1//EN" "http://www.w3.org/Graphics/SVG/1.1/DTD/svg11.dtd">
<svg version="1.1" id="Layer_1" xmlns="http://www.w3.org/2000/svg" xmlns:xlink="http://www.w3.org/1999/xlink" x="0px" y="0px"
	 width="331.427px" height="73.742px" viewBox="0 0 331.427 73.742" enable-background="new 0 0 331.427 73.742"
	 xml:space="preserve">
<g>
	<g>
		<path fill="#6D8BB0" d="M64.101,17.642L33.854,0.286c-0.666-0.381-1.483-0.381-2.149,0L1.458,17.642
			c-0.671,0.385-1.085,1.101-1.085,1.875v34.709c0,0.773,0.414,1.489,1.085,1.875l30.246,17.354c0.333,0.19,0.704,0.286,1.074,0.286
			c0.371,0,0.743-0.096,1.075-0.286L64.1,56.102c0.671-0.386,1.085-1.102,1.085-1.875V19.517
			C65.186,18.742,64.771,18.026,64.101,17.642z M37.821,55.596H27.738c-1.191,0-2.159-0.969-2.159-2.16
			c0-1.193,0.967-2.162,2.159-2.162h10.083c1.192,0,2.16,0.969,2.16,2.162C39.98,54.627,39.013,55.596,37.821,55.596z
			 M46.444,34.646c-0.351,0.771-1.119,1.265-1.966,1.265H39.98v10.321c0,1.192-0.967,2.16-2.16,2.16H27.738
			c-1.191,0-2.159-0.968-2.159-2.16V35.911H21.08c-0.847,0-1.615-0.494-1.967-1.265c-0.351-0.771-0.22-1.677,0.337-2.314
			L31.15,18.89c0.41-0.472,1.004-0.742,1.629-0.742s1.22,0.271,1.63,0.742l11.698,13.442C46.664,32.97,46.795,33.875,46.444,34.646z
			"/>
	</g>
</g>
<g>
	<path fill="#6D8BB0" d="M119.42,38.789h-18.599v19.582h-8.03V12.16h29.358v6.475h-21.328v13.743h18.599V38.789z"/>
	<path fill="#6D8BB0" d="M127.767,15.112c0-1.185,0.375-2.168,1.126-2.952c0.751-0.783,1.825-1.174,3.222-1.174
		s2.476,0.392,3.237,1.174c0.762,0.783,1.143,1.767,1.143,2.952c0,1.164-0.381,2.132-1.143,2.904
		c-0.762,0.773-1.841,1.159-3.237,1.159s-2.471-0.386-3.222-1.159C128.142,17.244,127.767,16.276,127.767,15.112z M135.955,58.371
		h-7.712V24.03h7.712V58.371z"/>
	<path fill="#6D8BB0" d="M152.555,58.371h-7.713V9.621h7.713V58.371z"/>
	<path fill="#6D8BB0" d="M176.073,59.006c-4.887,0-8.85-1.539-11.886-4.618c-3.036-3.078-4.554-7.178-4.554-12.298v-0.953
		c0-3.428,0.66-6.49,1.983-9.188c1.322-2.698,3.179-4.798,5.569-6.3c2.392-1.502,5.058-2.253,7.998-2.253
		c4.677,0,8.289,1.492,10.839,4.475s3.825,7.205,3.825,12.664v3.11h-22.439c0.232,2.836,1.18,5.078,2.841,6.729
		c1.66,1.65,3.75,2.476,6.269,2.476c3.533,0,6.41-1.429,8.633-4.284l4.157,3.967c-1.376,2.053-3.211,3.645-5.507,4.776
		S178.93,59.006,176.073,59.006z M175.153,29.584c-2.116,0-3.824,0.741-5.126,2.222c-1.301,1.481-2.132,3.544-2.491,6.189h14.695
		v-0.571c-0.17-2.581-0.857-4.533-2.063-5.855S177.289,29.584,175.153,29.584z"/>
	<path fill="#6D8BB0" d="M204.066,52.214h18.281v6.157h-27.866v-5.047l17.425-23.073h-17.107V24.03h26.883v4.888L204.066,52.214z"/>
	<path fill="#6D8BB0" d="M226.569,40.883c0-3.363,0.666-6.395,1.999-9.093c1.333-2.697,3.206-4.771,5.618-6.221
		c2.412-1.449,5.184-2.174,8.314-2.174c4.635,0,8.396,1.492,11.283,4.475c2.889,2.983,4.448,6.94,4.682,11.87l0.031,1.81
		c0,3.386-0.65,6.411-1.951,9.077c-1.302,2.666-3.164,4.729-5.586,6.189c-2.423,1.459-5.221,2.189-8.395,2.189
		c-4.846,0-8.724-1.613-11.633-4.84s-4.363-7.527-4.363-12.902V40.883z M234.281,41.55c0,3.534,0.729,6.3,2.19,8.3
		c1.459,1.999,3.49,2.999,6.094,2.999c2.602,0,4.628-1.016,6.077-3.047s2.175-5.004,2.175-8.919c0-3.469-0.746-6.22-2.238-8.251
		c-1.491-2.031-3.518-3.047-6.078-3.047c-2.518,0-4.518,1-5.998,3C235.021,34.583,234.281,37.572,234.281,41.55z"/>
	<path fill="#6D8BB0" d="M272.176,24.03l0.222,3.967c2.539-3.068,5.872-4.602,9.998-4.602c7.151,0,10.791,4.094,10.918,12.283
		v22.693h-7.713V36.123c0-2.179-0.471-3.792-1.412-4.84c-0.941-1.047-2.48-1.571-4.617-1.571c-3.111,0-5.428,1.407-6.951,4.221
		v24.438h-7.713V24.03H272.176z"/>
	<path fill="#6D8BB0" d="M316.291,59.006c-4.887,0-8.85-1.539-11.886-4.618c-3.036-3.078-4.554-7.178-4.554-12.298v-0.953
		c0-3.428,0.66-6.49,1.983-9.188c1.322-2.698,3.179-4.798,5.569-6.3c2.392-1.502,5.058-2.253,7.998-2.253
		c4.677,0,8.289,1.492,10.839,4.475s3.825,7.205,3.825,12.664v3.11h-22.439c0.232,2.836,1.18,5.078,2.841,6.729
		c1.66,1.65,3.75,2.476,6.269,2.476c3.533,0,6.41-1.429,8.633-4.284l4.157,3.967c-1.376,2.053-3.211,3.645-5.507,4.776
		S319.149,59.006,316.291,59.006z M315.371,29.584c-2.116,0-3.824,0.741-5.126,2.222c-1.301,1.481-2.132,3.544-2.491,6.189h14.695
		v-0.571c-0.17-2.581-0.857-4.533-2.063-5.855S317.508,29.584,315.371,29.584z"/>
</g>
</svg>
